<svg width="150" height="52" viewBox="0 0 150 52" version="1.1" xmlns="http://www.w3.org/2000/svg" xmlns:xlink="http://www.w3.org/1999/xlink">
<title>DiB Logo</title>
<desc>Created using Figma</desc>
<g id="Canvas" transform="translate(687 747)">
<clipPath id="clip-0" clip-rule="evenodd">
<path d="M -686.159 -747L -537 -747L -537 -695L -686.159 -695L -686.159 -747Z" fill="#FFFFFF"/>
</clipPath>
<g id="DiB Logo" clip-path="url(#clip-0)">
<g id="Demokratie in">
<use xlink:href="#path0_fill" transform="translate(-686.159 -737.609)" fill="#FFFFFF"/>
<use xlink:href="#path1_fill" transform="translate(-686.159 -737.609)" fill="#FFFFFF"/>
<use xlink:href="#path2_fill" transform="translate(-686.159 -737.609)" fill="#FFFFFF"/>
<use xlink:href="#path3_fill" transform="translate(-686.159 -737.609)" fill="#FFFFFF"/>
<use xlink:href="#path4_fill" transform="translate(-686.159 -737.609)" fill="#FFFFFF"/>
<use xlink:href="#path5_fill" transform="translate(-686.159 -737.609)" fill="#FFFFFF"/>
<use xlink:href="#path6_fill" transform="translate(-686.159 -737.609)" fill="#FFFFFF"/>
<use xlink:href="#path7_fill" transform="translate(-686.159 -737.609)" fill="#FFFFFF"/>
<use xlink:href="#path8_fill" transform="translate(-686.159 -737.609)" fill="#FFFFFF"/>
<use xlink:href="#path9_fill" transform="translate(-686.159 -737.609)" fill="#FFFFFF"/>
<use xlink:href="#path10_fill" transform="translate(-686.159 -737.609)" fill="#FFFFFF"/>
<use xlink:href="#path11_fill" transform="translate(-686.159 -737.609)" fill="#FFFFFF"/>
</g>
<g id="Bewegung">
<use xlink:href="#path12_fill" transform="translate(-686.126 -720.855)" fill="#FFFFFF"/>
<use xlink:href="#path13_fill" transform="translate(-686.126 -720.855)" fill="#FFFFFF"/>
<use xlink:href="#path14_fill" transform="translate(-686.126 -720.855)" fill="#FFFFFF"/>
<use xlink:href="#path15_fill" transform="translate(-686.126 -720.855)" fill="#FFFFFF"/>
<use xlink:href="#path16_fill" transform="translate(-686.126 -720.855)" fill="#FFFFFF"/>
<use xlink:href="#path17_fill" transform="translate(-686.126 -720.855)" fill="#FFFFFF"/>
<use xlink:href="#path18_fill" transform="translate(-686.126 -720.855)" fill="#FFFFFF"/>
<use xlink:href="#path19_fill" transform="translate(-686.126 -720.855)" fill="#FFFFFF"/>
</g>
</g>
</g>
<defs>
<path id="path0_fill" d="M 4.89832 0.178771C 5.78026 0.178771 6.54302 0.297952 7.18659 0.536313C 7.84209 0.762756 8.38436 1.0905 8.81341 1.51955C 9.25438 1.9486 9.58808 2.46704 9.81452 3.07486C 10.0529 3.68268 10.1959 4.36201 10.2436 5.11285C 10.2912 5.99479 10.2912 6.87672 10.2436 7.75866C 10.1959 8.5095 10.0529 9.18883 9.81452 9.79665C 9.58808 10.4045 9.26034 10.9229 8.83128 11.352C 8.40223 11.781 7.86592 12.1147 7.22235 12.3531C 6.59069 12.5795 5.84581 12.6927 4.98771 12.6927L 0.482682 12.6927C 0.351583 12.6927 0.238361 12.6451 0.143017 12.5497C 0.0476722 12.4544 0 12.3412 0 12.2101L 0 0.661453C 0 0.530354 0.0476722 0.417132 0.143017 0.321788C 0.238361 0.226443 0.351583 0.178771 0.482682 0.178771L 4.89832 0.178771ZM 7.83017 5.11285C 7.80633 4.73147 7.72886 4.37989 7.59777 4.0581C 7.47858 3.72439 7.29385 3.43836 7.04358 3.2C 6.80521 2.94972 6.5013 2.75903 6.13184 2.62793C 5.76238 2.48492 5.32142 2.41341 4.80894 2.41341L 2.41341 2.41341L 2.41341 10.4581L 4.89832 10.4581C 5.38696 10.4581 5.81006 10.3926 6.1676 10.2615C 6.52514 10.1184 6.82309 9.92775 7.06145 9.68939C 7.29981 9.45102 7.47858 9.16499 7.59777 8.83129C 7.72886 8.49758 7.80633 8.14004 7.83017 7.75866C 7.87784 6.87672 7.87784 5.99479 7.83017 5.11285Z"/>
<path id="path1_fill" d="M 21.0074 10.4581C 21.1385 10.4581 21.2517 10.5058 21.3471 10.6011C 21.4424 10.6965 21.4901 10.8097 21.4901 10.9408L 21.4901 12.2101C 21.4901 12.3412 21.4424 12.4544 21.3471 12.5497C 21.2517 12.6451 21.1385 12.6927 21.0074 12.6927L 13.1594 12.6927C 13.0283 12.6927 12.915 12.6451 12.8197 12.5497C 12.7243 12.4544 12.6767 12.3412 12.6767 12.2101L 12.6767 0.661453C 12.6767 0.530354 12.7243 0.417132 12.8197 0.321788C 12.915 0.226443 13.0283 0.178771 13.1594 0.178771L 20.8644 0.178771C 20.9955 0.178771 21.1087 0.226443 21.2041 0.321788C 21.2994 0.417132 21.3471 0.530354 21.3471 0.661453L 21.3471 1.93073C 21.3471 2.06183 21.2994 2.17505 21.2041 2.27039C 21.1087 2.36574 20.9955 2.41341 20.8644 2.41341L 15.0901 2.41341L 15.0901 5.25587L 20.4711 5.25587C 20.6022 5.25587 20.7154 5.30354 20.8108 5.39888C 20.9061 5.49423 20.9538 5.60745 20.9538 5.73855L 20.9538 7.00782C 20.9538 7.13892 20.9061 7.25214 20.8108 7.34749C 20.7154 7.44283 20.6022 7.4905 20.4711 7.4905L 15.0901 7.4905L 15.0901 10.4581L 21.0074 10.4581Z"/>
<path id="path2_fill" d="M 29.6633 6.56089L 33.0599 0.661453C 33.1076 0.601862 33.1851 0.506518 33.2923 0.375419C 33.4115 0.24432 33.5903 0.178771 33.8286 0.178771L 35.0443 0.178771C 35.1754 0.178771 35.2886 0.226443 35.3839 0.321788C 35.4793 0.417132 35.527 0.530354 35.527 0.661453L 35.527 12.2101C 35.527 12.3412 35.4793 12.4544 35.3839 12.5497C 35.2886 12.6451 35.1754 12.6927 35.0443 12.6927L 33.5962 12.6927C 33.4651 12.6927 33.3519 12.6451 33.2566 12.5497C 33.1612 12.4544 33.1135 12.3412 33.1135 12.2101L 33.1135 5.22011L 30.7895 9.24246C 30.7299 9.3378 30.6465 9.43911 30.5392 9.54637C 30.432 9.64171 30.2949 9.68939 30.1281 9.68939L 29.1985 9.68939C 29.0316 9.68939 28.8946 9.64171 28.7873 9.54637C 28.68 9.43911 28.5966 9.3378 28.537 9.24246L 26.213 5.22011L 26.213 12.2101C 26.213 12.3412 26.1653 12.4544 26.07 12.5497C 25.9746 12.6451 25.8614 12.6927 25.7303 12.6927L 24.2823 12.6927C 24.1512 12.6927 24.0379 12.6451 23.9426 12.5497C 23.8473 12.4544 23.7996 12.3412 23.7996 12.2101L 23.7996 0.661453C 23.7996 0.530354 23.8473 0.417132 23.9426 0.321788C 24.0379 0.226443 24.1512 0.178771 24.2823 0.178771L 25.4979 0.178771C 25.7363 0.178771 25.9091 0.24432 26.0163 0.375419C 26.1355 0.506518 26.2189 0.601862 26.2666 0.661453L 29.6633 6.56089Z"/>
<path id="path3_fill" d="M 37.9676 4.84469C 38.0034 4.17728 38.1285 3.55158 38.343 2.9676C 38.5695 2.37169 38.8972 1.85922 39.3263 1.43017C 39.7553 0.989199 40.2916 0.643575 40.9352 0.393296C 41.5788 0.131099 42.3415 0 43.2235 0C 44.0935 0 44.8503 0.12514 45.4939 0.375419C 46.1374 0.625698 46.6737 0.971322 47.1028 1.41229C 47.5318 1.85326 47.8596 2.36574 48.086 2.94972C 48.3125 3.53371 48.4436 4.16536 48.4793 4.84469C 48.4912 5.07114 48.4972 5.32142 48.4972 5.59553C 48.5091 5.86965 48.5151 6.15568 48.5151 6.45363C 48.5151 6.73966 48.5091 7.01974 48.4972 7.29386C 48.4972 7.56797 48.4912 7.81825 48.4793 8.04469C 48.4436 8.7121 48.3125 9.34376 48.086 9.93967C 47.8715 10.5237 47.5497 11.0361 47.1207 11.4771C 46.6916 11.9061 46.1493 12.2458 45.4939 12.4961C 44.8503 12.7464 44.0935 12.8715 43.2235 12.8715C 42.3415 12.8715 41.5788 12.7464 40.9352 12.4961C 40.2916 12.2458 39.7553 11.9061 39.3263 11.4771C 38.8972 11.0361 38.5695 10.5237 38.343 9.93967C 38.1285 9.34376 38.0034 8.7121 37.9676 8.04469C 37.9557 7.81825 37.9438 7.56797 37.9318 7.29386C 37.9318 7.01974 37.9318 6.73966 37.9318 6.45363C 37.9318 6.15568 37.9318 5.86965 37.9318 5.59553C 37.9438 5.32142 37.9557 5.07114 37.9676 4.84469ZM 46.0659 4.93408C 46.0183 4.07598 45.7382 3.41453 45.2257 2.94972C 44.7251 2.473 44.0577 2.23464 43.2235 2.23464C 42.3892 2.23464 41.7158 2.473 41.2034 2.94972C 40.7028 3.41453 40.4287 4.07598 40.381 4.93408C 40.3572 5.38696 40.3453 5.89348 40.3453 6.45363C 40.3453 7.00186 40.3572 7.50242 40.381 7.95531C 40.4287 8.81341 40.7028 9.47486 41.2034 9.93967C 41.7158 10.4045 42.3892 10.6369 43.2235 10.6369C 44.0577 10.6369 44.7251 10.4045 45.2257 9.93967C 45.7382 9.47486 46.0183 8.81341 46.0659 7.95531C 46.0898 7.50242 46.1017 7.00186 46.1017 6.45363C 46.1017 5.89348 46.0898 5.38696 46.0659 4.93408Z"/>
<path id="path4_fill" d="M 60.4264 11.9419C 60.486 12.0015 60.5217 12.0551 60.5337 12.1028C 60.5456 12.1505 60.5515 12.1862 60.5515 12.2101C 60.5515 12.3412 60.5039 12.4544 60.4085 12.5497C 60.3132 12.6451 60.2 12.6927 60.0689 12.6927L 58.3705 12.6927C 58.1322 12.6927 57.9415 12.6331 57.7985 12.514C 57.6554 12.3829 57.572 12.3054 57.5482 12.2816L 53.3471 7.54413L 53.3471 12.2101C 53.3471 12.3412 53.2994 12.4544 53.2041 12.5497C 53.1087 12.6451 52.9955 12.6927 52.8644 12.6927L 51.4163 12.6927C 51.2852 12.6927 51.172 12.6451 51.0767 12.5497C 50.9813 12.4544 50.9337 12.3412 50.9337 12.2101L 50.9337 0.661453C 50.9337 0.530354 50.9813 0.417132 51.0767 0.321788C 51.172 0.226443 51.2852 0.178771 51.4163 0.178771L 52.8644 0.178771C 52.9955 0.178771 53.1087 0.226443 53.2041 0.321788C 53.2994 0.417132 53.3471 0.530354 53.3471 0.661453L 53.3471 4.86257L 57.2443 0.572067C 57.3515 0.452886 57.4648 0.357542 57.5839 0.286034C 57.7031 0.214525 57.8581 0.178771 58.0487 0.178771L 59.6934 0.178771C 59.8245 0.178771 59.9378 0.226443 60.0331 0.321788C 60.1284 0.417132 60.1761 0.530354 60.1761 0.661453C 60.1761 0.756797 60.1404 0.846183 60.0689 0.929609L 55.2599 6.1676L 60.4264 11.9419Z"/>
<path id="path5_fill" d="M 67.3436 0.178771C 68.8333 0.178771 69.9655 0.524395 70.7402 1.21564C 71.5149 1.90689 71.9022 2.86629 71.9022 4.09385C 71.9022 4.96387 71.6996 5.70875 71.2944 6.32849C 70.9011 6.93631 70.3171 7.3892 69.5425 7.68715L 72.0095 12.1028C 72.0452 12.1743 72.0631 12.2399 72.0631 12.2994C 72.0631 12.4067 72.0214 12.502 71.938 12.5855C 71.8665 12.657 71.7771 12.6927 71.6698 12.6927L 70.1503 12.6927C 69.9119 12.6927 69.7331 12.6391 69.614 12.5318C 69.5067 12.4127 69.4292 12.3054 69.3816 12.2101L 67.0397 8.04469L 64.662 8.04469L 64.662 12.2101C 64.662 12.3412 64.6143 12.4544 64.519 12.5497C 64.4236 12.6451 64.3104 12.6927 64.1793 12.6927L 62.7313 12.6927C 62.6002 12.6927 62.487 12.6451 62.3916 12.5497C 62.2963 12.4544 62.2486 12.3412 62.2486 12.2101L 62.2486 0.661453C 62.2486 0.530354 62.2963 0.417132 62.3916 0.321788C 62.487 0.226443 62.6002 0.178771 62.7313 0.178771L 67.3436 0.178771ZM 64.662 5.81006L 67.2542 5.81006C 67.9335 5.81006 68.4758 5.69088 68.881 5.45251C 69.2862 5.21415 69.4888 4.76127 69.4888 4.09385C 69.4888 3.42644 69.2862 2.97952 68.881 2.75307C 68.4758 2.52663 67.9335 2.41341 67.2542 2.41341L 64.662 2.41341L 64.662 5.81006Z"/>
<path id="path6_fill" d="M 80.1958 0.178771C 80.3865 0.178771 80.5295 0.232402 80.6249 0.339665C 80.7202 0.435009 80.8036 0.583985 80.8751 0.786592L 85.255 12.0849C 85.2669 12.1207 85.2729 12.1624 85.2729 12.2101C 85.2729 12.3412 85.2252 12.4544 85.1299 12.5497C 85.0345 12.6451 84.9213 12.6927 84.7902 12.6927L 83.5031 12.6927C 83.2647 12.6927 83.0979 12.6451 83.0025 12.5497C 82.9072 12.4425 82.8416 12.3412 82.8059 12.2458L 82.0372 10.2615L 76.388 10.2615L 75.6193 12.2458C 75.5835 12.3412 75.518 12.4425 75.4226 12.5497C 75.3273 12.6451 75.1604 12.6927 74.9221 12.6927L 73.6349 12.6927C 73.5038 12.6927 73.3906 12.6451 73.2953 12.5497C 73.1999 12.4544 73.1522 12.3412 73.1522 12.2101C 73.1522 12.1624 73.1582 12.1207 73.1701 12.0849L 77.55 0.786592C 77.6215 0.583985 77.7049 0.435009 77.8003 0.339665C 77.8956 0.232402 78.0386 0.178771 78.2293 0.178771L 80.1958 0.178771ZM 81.1791 8.02682L 79.2126 2.93184L 77.2461 8.02682L 81.1791 8.02682Z"/>
<path id="path7_fill" d="M 94.0472 0.178771C 94.1783 0.178771 94.2915 0.226443 94.3869 0.321788C 94.4822 0.417132 94.5299 0.530354 94.5299 0.661453L 94.5299 1.93073C 94.5299 2.06183 94.4822 2.17505 94.3869 2.27039C 94.2915 2.36574 94.1783 2.41341 94.0472 2.41341L 90.8293 2.41341L 90.8293 12.2101C 90.8293 12.3412 90.7817 12.4544 90.6863 12.5497C 90.591 12.6451 90.4777 12.6927 90.3467 12.6927L 88.8986 12.6927C 88.7675 12.6927 88.6543 12.6451 88.5589 12.5497C 88.4636 12.4544 88.4159 12.3412 88.4159 12.2101L 88.4159 2.41341L 85.198 2.41341C 85.0669 2.41341 84.9537 2.36574 84.8584 2.27039C 84.763 2.17505 84.7154 2.06183 84.7154 1.93073L 84.7154 0.661453C 84.7154 0.530354 84.763 0.417132 84.8584 0.321788C 84.9537 0.226443 85.0669 0.178771 85.198 0.178771L 94.0472 0.178771Z"/>
<path id="path8_fill" d="M 96.8856 12.6927C 96.7545 12.6927 96.6413 12.6451 96.546 12.5497C 96.4506 12.4544 96.4029 12.3412 96.4029 12.2101L 96.4029 0.661453C 96.4029 0.530354 96.4506 0.417132 96.546 0.321788C 96.6413 0.226443 96.7545 0.178771 96.8856 0.178771L 98.3337 0.178771C 98.4648 0.178771 98.578 0.226443 98.6733 0.321788C 98.7687 0.417132 98.8163 0.530354 98.8163 0.661453L 98.8163 12.2101C 98.8163 12.3412 98.7687 12.4544 98.6733 12.5497C 98.578 12.6451 98.4648 12.6927 98.3337 12.6927L 96.8856 12.6927Z"/>
<path id="path9_fill" d="M 110.026 10.4581C 110.157 10.4581 110.27 10.5058 110.365 10.6011C 110.461 10.6965 110.508 10.8097 110.508 10.9408L 110.508 12.2101C 110.508 12.3412 110.461 12.4544 110.365 12.5497C 110.27 12.6451 110.157 12.6927 110.026 12.6927L 102.178 12.6927C 102.046 12.6927 101.933 12.6451 101.838 12.5497C 101.743 12.4544 101.695 12.3412 101.695 12.2101L 101.695 0.661453C 101.695 0.530354 101.743 0.417132 101.838 0.321788C 101.933 0.226443 102.046 0.178771 102.178 0.178771L 109.883 0.178771C 110.014 0.178771 110.127 0.226443 110.222 0.321788C 110.318 0.417132 110.365 0.530354 110.365 0.661453L 110.365 1.93073C 110.365 2.06183 110.318 2.17505 110.222 2.27039C 110.127 2.36574 110.014 2.41341 109.883 2.41341L 104.108 2.41341L 104.108 5.25587L 109.489 5.25587C 109.62 5.25587 109.734 5.30354 109.829 5.39888C 109.924 5.49423 109.972 5.60745 109.972 5.73855L 109.972 7.00782C 109.972 7.13892 109.924 7.25214 109.829 7.34749C 109.734 7.44283 109.62 7.4905 109.489 7.4905L 104.108 7.4905L 104.108 10.4581L 110.026 10.4581Z"/>
<path id="path10_fill" d="M 117.458 12.6927C 117.326 12.6927 117.213 12.6451 117.118 12.5497C 117.023 12.4544 116.975 12.3412 116.975 12.2101L 116.975 0.661453C 116.975 0.530354 117.023 0.417132 117.118 0.321788C 117.213 0.226443 117.326 0.178771 117.458 0.178771L 118.906 0.178771C 119.037 0.178771 119.15 0.226443 119.245 0.321788C 119.341 0.417132 119.388 0.530354 119.388 0.661453L 119.388 12.2101C 119.388 12.3412 119.341 12.4544 119.245 12.5497C 119.15 12.6451 119.037 12.6927 118.906 12.6927L 117.458 12.6927Z"/>
<path id="path11_fill" d="M 130.383 12.6927C 130.18 12.6927 130.025 12.6391 129.918 12.5318C 129.811 12.4246 129.733 12.3412 129.686 12.2816L 124.68 4.84469L 124.68 12.2101C 124.68 12.3412 124.632 12.4544 124.537 12.5497C 124.442 12.6451 124.329 12.6927 124.197 12.6927L 122.749 12.6927C 122.618 12.6927 122.505 12.6451 122.41 12.5497C 122.314 12.4544 122.267 12.3412 122.267 12.2101L 122.267 0.661453C 122.267 0.530354 122.314 0.417132 122.41 0.321788C 122.505 0.226443 122.618 0.178771 122.749 0.178771L 124.001 0.178771C 124.203 0.178771 124.358 0.232402 124.466 0.339665C 124.573 0.446927 124.65 0.530354 124.698 0.589944L 129.704 8.02682L 129.704 0.661453C 129.704 0.530354 129.751 0.417132 129.847 0.321788C 129.942 0.226443 130.055 0.178771 130.186 0.178771L 131.634 0.178771C 131.765 0.178771 131.879 0.226443 131.974 0.321788C 132.069 0.417132 132.117 0.530354 132.117 0.661453L 132.117 12.2101C 132.117 12.3412 132.069 12.4544 131.974 12.5497C 131.879 12.6451 131.765 12.6927 131.634 12.6927L 130.383 12.6927Z"/>
<path id="path12_fill" d="M 0.648603 17.0559C 0.47244 17.0559 0.320298 16.9918 0.192179 16.8637C 0.0640596 16.7356 0 16.5834 0 16.4073L 0 0.888828C 0 0.712664 0.0640596 0.560522 0.192179 0.432403C 0.320298 0.304283 0.47244 0.240224 0.648603 0.240224L 7.7352 0.240224C 8.76015 0.240224 9.61695 0.400373 10.3056 0.720671C 10.9942 1.02495 11.5467 1.41732 11.9631 1.89777C 12.3795 2.3622 12.6758 2.87468 12.852 3.4352C 13.0441 3.97971 13.1402 4.49218 13.1402 4.97263C 13.1402 5.45308 13.0762 5.88548 12.948 6.26984C 12.8199 6.63818 12.6598 6.95848 12.4676 7.23074C 12.2914 7.48697 12.1073 7.70318 11.9151 7.87934C 11.7389 8.0555 11.5948 8.17562 11.4827 8.23968C 11.9791 8.57599 12.4356 9.05644 12.852 9.68102C 13.2683 10.2896 13.4765 11.0663 13.4765 12.0112C 13.4765 12.6198 13.3644 13.2283 13.1402 13.8369C 12.916 14.4294 12.5877 14.9659 12.1553 15.4464C 11.7229 15.9268 11.1784 16.3192 10.5218 16.6235C 9.88119 16.9118 9.1365 17.0559 8.28771 17.0559L 0.648603 17.0559ZM 9.89721 5.09274C 9.89721 4.48418 9.70503 4.02775 9.32067 3.72347C 8.93631 3.40317 8.32775 3.24302 7.49497 3.24302L 3.24302 3.24302L 3.24302 6.94247L 7.49497 6.94247C 8.32775 6.94247 8.93631 6.79033 9.32067 6.48604C 9.70503 6.16574 9.89721 5.70131 9.89721 5.09274ZM 3.24302 14.0531L 7.68715 14.0531C 8.56797 14.0531 9.20857 13.8689 9.60894 13.5006C 10.0253 13.1162 10.2335 12.6198 10.2335 12.0112C 10.2335 11.4026 10.0173 10.9062 9.58492 10.5218C 9.16853 10.1374 8.53594 9.94526 7.68715 9.94526L 3.24302 9.94526L 3.24302 14.0531Z"/>
<path id="path13_fill" d="M 27.9031 14.0531C 28.0792 14.0531 28.2314 14.1172 28.3595 14.2453C 28.4876 14.3734 28.5517 14.5255 28.5517 14.7017L 28.5517 16.4073C 28.5517 16.5834 28.4876 16.7356 28.3595 16.8637C 28.2314 16.9918 28.0792 17.0559 27.9031 17.0559L 17.3573 17.0559C 17.1811 17.0559 17.029 16.9918 16.9008 16.8637C 16.7727 16.7356 16.7087 16.5834 16.7087 16.4073L 16.7087 0.888828C 16.7087 0.712664 16.7727 0.560522 16.9008 0.432403C 17.029 0.304283 17.1811 0.240224 17.3573 0.240224L 27.7109 0.240224C 27.8871 0.240224 28.0392 0.304283 28.1673 0.432403C 28.2954 0.560522 28.3595 0.712664 28.3595 0.888828L 28.3595 2.59442C 28.3595 2.77058 28.2954 2.92272 28.1673 3.05084C 28.0392 3.17896 27.8871 3.24302 27.7109 3.24302L 19.9517 3.24302L 19.9517 7.06258L 27.1824 7.06258C 27.3586 7.06258 27.5107 7.12664 27.6388 7.25476C 27.767 7.38288 27.831 7.53502 27.831 7.71118L 27.831 9.41677C 27.831 9.59294 27.767 9.74508 27.6388 9.8732C 27.5107 10.0013 27.3586 10.0654 27.1824 10.0654L 19.9517 10.0654L 19.9517 14.0531L 27.9031 14.0531Z"/>
<path id="path14_fill" d="M 39.5344 9.05644L 37.4685 16.2391C 37.3884 16.4794 37.2843 16.6795 37.1562 16.8397C 37.0441 16.9838 36.8679 17.0559 36.6277 17.0559L 34.6819 17.0559C 34.4417 17.0559 34.2495 16.9838 34.1054 16.8397C 33.9772 16.6795 33.8892 16.4794 33.8411 16.2391L 30.7662 1.08101C 30.7502 1.00093 30.7422 0.936873 30.7422 0.888828C 30.7422 0.712664 30.8063 0.560522 30.9344 0.432403C 31.0625 0.304283 31.2147 0.240224 31.3908 0.240224L 33.1685 0.240224C 33.3286 0.240224 33.4808 0.288269 33.6249 0.384358C 33.769 0.480448 33.8651 0.648604 33.9132 0.888828L 35.9311 11.0743L 37.7087 4.66034C 37.7407 4.54824 37.8128 4.4041 37.9249 4.22794C 38.053 4.05177 38.2612 3.96369 38.5495 3.96369L 40.5193 3.96369C 40.8076 3.96369 41.0078 4.05177 41.1199 4.22794C 41.248 4.4041 41.3281 4.54824 41.3601 4.66034L 43.1378 11.0743L 45.1556 0.888828C 45.2037 0.648604 45.2998 0.480448 45.4439 0.384358C 45.588 0.288269 45.7402 0.240224 45.9003 0.240224L 47.678 0.240224C 47.8541 0.240224 48.0063 0.304283 48.1344 0.432403C 48.2625 0.560522 48.3266 0.712664 48.3266 0.888828C 48.3266 0.936873 48.3186 1.00093 48.3026 1.08101L 45.2277 16.2391C 45.1797 16.4794 45.0836 16.6795 44.9394 16.8397C 44.8113 16.9838 44.6271 17.0559 44.3869 17.0559L 42.4411 17.0559C 42.2009 17.0559 42.0167 16.9838 41.8886 16.8397C 41.7765 16.6795 41.6804 16.4794 41.6003 16.2391L 39.5344 9.05644Z"/>
<path id="path15_fill" d="M 62.4699 14.0531C 62.6461 14.0531 62.7982 14.1172 62.9264 14.2453C 63.0545 14.3734 63.1185 14.5255 63.1185 14.7017L 63.1185 16.4073C 63.1185 16.5834 63.0545 16.7356 62.9264 16.8637C 62.7982 16.9918 62.6461 17.0559 62.4699 17.0559L 51.9241 17.0559C 51.748 17.0559 51.5958 16.9918 51.4677 16.8637C 51.3396 16.7356 51.2755 16.5834 51.2755 16.4073L 51.2755 0.888828C 51.2755 0.712664 51.3396 0.560522 51.4677 0.432403C 51.5958 0.304283 51.748 0.240224 51.9241 0.240224L 62.2778 0.240224C 62.4539 0.240224 62.6061 0.304283 62.7342 0.432403C 62.8623 0.560522 62.9264 0.712664 62.9264 0.888828L 62.9264 2.59442C 62.9264 2.77058 62.8623 2.92272 62.7342 3.05084C 62.6061 3.17896 62.4539 3.24302 62.2778 3.24302L 54.5185 3.24302L 54.5185 7.06258L 61.7493 7.06258C 61.9254 7.06258 62.0776 7.12664 62.2057 7.25476C 62.3338 7.38288 62.3979 7.53502 62.3979 7.71118L 62.3979 9.41677C 62.3979 9.59294 62.3338 9.74508 62.2057 9.8732C 62.0776 10.0013 61.9254 10.0654 61.7493 10.0654L 54.5185 10.0654L 54.5185 14.0531L 62.4699 14.0531Z"/>
<path id="path16_fill" d="M 65.6007 6.46202C 65.6327 5.50112 65.8089 4.62831 66.1292 3.84358C 66.4495 3.04283 66.9139 2.3622 67.5225 1.80168C 68.1311 1.22514 68.8758 0.784731 69.7566 0.480448C 70.6534 0.160149 71.6944 0 72.8795 0C 74.2728 0 75.4179 0.184172 76.3147 0.552515C 77.2275 0.904843 77.9482 1.33725 78.4767 1.84972C 79.0212 2.34619 79.3975 2.86667 79.6057 3.41118C 79.83 3.93967 79.9581 4.38809 79.9901 4.75643C 80.0061 4.94861 79.9421 5.10876 79.7979 5.23688C 79.6698 5.34898 79.5177 5.40504 79.3415 5.40504L 77.3957 5.40504C 77.2195 5.40504 77.0754 5.365 76.9633 5.28492C 76.8672 5.18883 76.7951 5.09274 76.7471 4.99665C 76.7151 4.9326 76.627 4.79647 76.4828 4.58827C 76.3547 4.36407 76.1385 4.13986 75.8342 3.91565C 75.546 3.67542 75.1616 3.46723 74.6812 3.29107C 74.2007 3.09889 73.6002 3.0028 72.8795 3.0028C 71.6784 3.0028 70.7175 3.3311 69.9968 3.98771C 69.2761 4.62831 68.8918 5.49312 68.8437 6.58213C 68.8117 7.1907 68.7957 7.84731 68.7957 8.55197C 68.7957 9.24061 68.8117 9.88921 68.8437 10.4978C 68.8918 11.827 69.2761 12.7959 69.9968 13.4045C 70.7175 13.997 71.6784 14.2933 72.8795 14.2933C 73.472 14.2933 74.0165 14.2293 74.513 14.1011C 75.0095 13.973 75.4339 13.7648 75.7862 13.4766C 76.1545 13.1883 76.4348 12.8119 76.627 12.3475C 76.8352 11.8671 76.9393 11.2825 76.9393 10.5939L 76.9393 10.4017L 74.0085 10.4017C 73.8324 10.4017 73.6802 10.3376 73.5521 10.2095C 73.424 10.0814 73.3599 9.92925 73.3599 9.75309L 73.3599 8.0475C 73.3599 7.87133 73.424 7.71919 73.5521 7.59107C 73.6802 7.46295 73.8324 7.39889 74.0085 7.39889L 79.5337 7.39889C 79.7098 7.39889 79.862 7.46295 79.9901 7.59107C 80.1182 7.71919 80.1823 7.87133 80.1823 8.0475L 80.1823 10.69C 80.1823 11.6509 80.0301 12.5397 79.7259 13.3564C 79.4216 14.1572 78.9651 14.8538 78.3566 15.4464C 77.748 16.0229 76.9873 16.4794 76.0745 16.8157C 75.1616 17.136 74.0966 17.2961 72.8795 17.2961C 71.6624 17.2961 70.6054 17.136 69.7085 16.8157C 68.8117 16.4954 68.067 16.0469 67.4745 15.4704C 66.8819 14.8939 66.4255 14.2052 66.1052 13.4045C 65.8009 12.5877 65.6327 11.6989 65.6007 10.738C 65.5847 10.4337 65.5687 10.0974 65.5527 9.72906C 65.5527 9.36072 65.5527 8.98437 65.5527 8.60001C 65.5527 8.21565 65.5527 7.8393 65.5527 7.47096C 65.5687 7.10262 65.5847 6.7663 65.6007 6.46202Z"/>
<path id="path17_fill" d="M 96.4456 0.240224C 96.6218 0.240224 96.7739 0.304283 96.902 0.432403C 97.0302 0.560522 97.0942 0.712664 97.0942 0.888828L 97.0942 10.738C 97.0942 11.7309 96.9501 12.6278 96.6618 13.4285C 96.3735 14.2293 95.9411 14.9179 95.3646 15.4944C 94.7881 16.071 94.0674 16.5194 93.2026 16.8397C 92.3378 17.144 91.3368 17.2961 90.1998 17.2961C 89.0467 17.2961 88.0378 17.144 87.173 16.8397C 86.3242 16.5194 85.6115 16.071 85.035 15.4944C 84.4585 14.9179 84.0261 14.2293 83.7378 13.4285C 83.4655 12.6278 83.3294 11.7309 83.3294 10.738L 83.3294 0.888828C 83.3294 0.712664 83.3935 0.560522 83.5216 0.432403C 83.6497 0.304283 83.8018 0.240224 83.978 0.240224L 85.9238 0.240224C 86.1 0.240224 86.2521 0.304283 86.3802 0.432403C 86.5084 0.560522 86.5724 0.712664 86.5724 0.888828L 86.5724 10.6179C 86.5724 11.2745 86.6605 11.835 86.8367 12.2995C 87.0128 12.7639 87.2611 13.1482 87.5814 13.4525C 87.9017 13.7408 88.286 13.957 88.7344 14.1011C 89.1828 14.2293 89.6713 14.2933 90.1998 14.2933C 90.7283 14.2933 91.2167 14.2293 91.6652 14.1011C 92.1296 13.957 92.522 13.7408 92.8423 13.4525C 93.1626 13.1482 93.4108 12.7639 93.5869 12.2995C 93.7791 11.835 93.8752 11.2745 93.8752 10.6179L 93.8752 0.888828C 93.8752 0.712664 93.9393 0.560522 94.0674 0.432403C 94.1955 0.304283 94.3476 0.240224 94.5238 0.240224L 96.4456 0.240224Z"/>
<path id="path18_fill" d="M 111.862 17.0559C 111.59 17.0559 111.381 16.9838 111.237 16.8397C 111.093 16.6956 110.989 16.5834 110.925 16.5034L 104.199 6.51006L 104.199 16.4073C 104.199 16.5834 104.135 16.7356 104.007 16.8637C 103.879 16.9918 103.726 17.0559 103.55 17.0559L 101.604 17.0559C 101.428 17.0559 101.276 16.9918 101.148 16.8637C 101.02 16.7356 100.956 16.5834 100.956 16.4073L 100.956 0.888828C 100.956 0.712664 101.02 0.560522 101.148 0.432403C 101.276 0.304283 101.428 0.240224 101.604 0.240224L 103.286 0.240224C 103.558 0.240224 103.766 0.312291 103.911 0.456425C 104.055 0.600559 104.159 0.712664 104.223 0.792738L 110.949 10.786L 110.949 0.888828C 110.949 0.712664 111.013 0.560522 111.141 0.432403C 111.269 0.304283 111.422 0.240224 111.598 0.240224L 113.544 0.240224C 113.72 0.240224 113.872 0.304283 114 0.432403C 114.128 0.560522 114.192 0.712664 114.192 0.888828L 114.192 16.4073C 114.192 16.5834 114.128 16.7356 114 16.8637C 113.872 16.9918 113.72 17.0559 113.544 17.0559L 111.862 17.0559Z"/>
<path id="path19_fill" d="M 117.58 6.46202C 117.612 5.50112 117.788 4.62831 118.108 3.84358C 118.429 3.04283 118.893 2.3622 119.502 1.80168C 120.11 1.22514 120.855 0.784731 121.736 0.480448C 122.633 0.160149 123.674 0 124.859 0C 126.252 0 127.397 0.184172 128.294 0.552515C 129.207 0.904843 129.927 1.33725 130.456 1.84972C 131 2.34619 131.377 2.86667 131.585 3.41118C 131.809 3.93967 131.937 4.38809 131.969 4.75643C 131.985 4.94861 131.921 5.10876 131.777 5.23688C 131.649 5.34898 131.497 5.40504 131.321 5.40504L 129.375 5.40504C 129.199 5.40504 129.055 5.365 128.943 5.28492C 128.846 5.18883 128.774 5.09274 128.726 4.99665C 128.694 4.9326 128.606 4.79647 128.462 4.58827C 128.334 4.36407 128.118 4.13986 127.814 3.91565C 127.525 3.67542 127.141 3.46723 126.66 3.29107C 126.18 3.09889 125.579 3.0028 124.859 3.0028C 123.658 3.0028 122.697 3.3311 121.976 3.98771C 121.255 4.62831 120.871 5.49312 120.823 6.58213C 120.791 7.1907 120.775 7.84731 120.775 8.55197C 120.775 9.24061 120.791 9.88921 120.823 10.4978C 120.871 11.827 121.255 12.7959 121.976 13.4045C 122.697 13.997 123.658 14.2933 124.859 14.2933C 125.451 14.2933 125.996 14.2293 126.492 14.1011C 126.989 13.973 127.413 13.7648 127.765 13.4766C 128.134 13.1883 128.414 12.8119 128.606 12.3475C 128.814 11.8671 128.919 11.2825 128.919 10.5939L 128.919 10.4017L 125.988 10.4017C 125.812 10.4017 125.66 10.3376 125.531 10.2095C 125.403 10.0814 125.339 9.92925 125.339 9.75309L 125.339 8.0475C 125.339 7.87133 125.403 7.71919 125.531 7.59107C 125.66 7.46295 125.812 7.39889 125.988 7.39889L 131.513 7.39889C 131.689 7.39889 131.841 7.46295 131.969 7.59107C 132.098 7.71919 132.162 7.87133 132.162 8.0475L 132.162 10.69C 132.162 11.6509 132.009 12.5397 131.705 13.3564C 131.401 14.1572 130.944 14.8538 130.336 15.4464C 129.727 16.0229 128.967 16.4794 128.054 16.8157C 127.141 17.136 126.076 17.2961 124.859 17.2961C 123.642 17.2961 122.585 17.136 121.688 16.8157C 120.791 16.4954 120.046 16.0469 119.454 15.4704C 118.861 14.8939 118.405 14.2052 118.084 13.4045C 117.78 12.5877 117.612 11.6989 117.58 10.738C 117.564 10.4337 117.548 10.0974 117.532 9.72906C 117.532 9.36072 117.532 8.98437 117.532 8.60001C 117.532 8.21565 117.532 7.8393 117.532 7.47096C 117.548 7.10262 117.564 6.7663 117.58 6.46202Z"/>
</defs>
</svg>
