<svg width="145" height="40" viewBox="0 0 145 40" version="1.1" xmlns="http://www.w3.org/2000/svg" xmlns:xlink="http://www.w3.org/1999/xlink">
<title>dib_logo</title>
<desc>Created using Figma</desc>
<g id="Canvas" transform="translate(686 747)">
<clipPath id="clip-0" clip-rule="evenodd">
<path d="M -685.159 -747L -541.159 -747L -541.159 -707L -685.159 -707L -685.159 -747Z" fill="#FFFFFF"/>
</clipPath>
<g id="dib_logo" clip-path="url(#clip-0)">
<g id="Logo">
<g id="Bewegung">
<use xlink:href="#path0_fill" transform="translate(-685.127 -727.255)" fill="url(#paint0_linear)"/>
<use xlink:href="#path1_fill" transform="translate(-685.127 -727.255)" fill="url(#paint1_linear)"/>
<use xlink:href="#path2_fill" transform="translate(-685.127 -727.255)" fill="url(#paint2_linear)"/>
<use xlink:href="#path3_fill" transform="translate(-685.127 -727.255)" fill="url(#paint3_linear)"/>
<use xlink:href="#path4_fill" transform="translate(-685.127 -727.255)" fill="url(#paint4_linear)"/>
<use xlink:href="#path5_fill" transform="translate(-685.127 -727.255)" fill="url(#paint5_linear)"/>
<use xlink:href="#path6_fill" transform="translate(-685.127 -727.255)" fill="url(#paint6_linear)"/>
<use xlink:href="#path7_fill" transform="translate(-685.127 -727.255)" fill="url(#paint7_linear)"/>
</g>
<g id="Demokratie in">
<use xlink:href="#path8_fill" transform="translate(-685.159 -743)" fill="url(#paint8_linear)"/>
<use xlink:href="#path9_fill" transform="translate(-685.159 -743)" fill="url(#paint9_linear)"/>
<use xlink:href="#path10_fill" transform="translate(-685.159 -743)" fill="url(#paint10_linear)"/>
<use xlink:href="#path11_fill" transform="translate(-685.159 -743)" fill="url(#paint11_linear)"/>
<use xlink:href="#path12_fill" transform="translate(-685.159 -743)" fill="url(#paint12_linear)"/>
<use xlink:href="#path13_fill" transform="translate(-685.159 -743)" fill="url(#paint13_linear)"/>
<use xlink:href="#path14_fill" transform="translate(-685.159 -743)" fill="url(#paint14_linear)"/>
<use xlink:href="#path15_fill" transform="translate(-685.159 -743)" fill="url(#paint15_linear)"/>
<use xlink:href="#path16_fill" transform="translate(-685.159 -743)" fill="url(#paint16_linear)"/>
<use xlink:href="#path17_fill" transform="translate(-685.159 -743)" fill="url(#paint17_linear)"/>
<use xlink:href="#path18_fill" transform="translate(-685.159 -743)" fill="url(#paint18_linear)"/>
<use xlink:href="#path19_fill" transform="translate(-685.159 -743)" fill="url(#paint19_linear)"/>
</g>
</g>
</g>
</g>
<defs>
<linearGradient id="paint0_linear" x1="0" y1="0" x2="1" y2="0" gradientUnits="userSpaceOnUse" gradientTransform="matrix(127.969 -4.81221e-05 0.000387571 5435.02 -0.000193785 -2709.38)">
<stop offset="0" stop-color="#253C87"/>
<stop offset="0.300013" stop-color="#253C87"/>
<stop offset="1" stop-color="#EB5C4A"/>
</linearGradient>
<linearGradient id="paint1_linear" x1="0" y1="0" x2="1" y2="0" gradientUnits="userSpaceOnUse" gradientTransform="matrix(127.969 -4.81221e-05 0.000387571 5435.02 -0.000193785 -2709.38)">
<stop offset="0" stop-color="#253C87"/>
<stop offset="0.300013" stop-color="#253C87"/>
<stop offset="1" stop-color="#EB5C4A"/>
</linearGradient>
<linearGradient id="paint2_linear" x1="0" y1="0" x2="1" y2="0" gradientUnits="userSpaceOnUse" gradientTransform="matrix(127.969 -4.81221e-05 0.000387571 5435.02 -0.000193785 -2709.38)">
<stop offset="0" stop-color="#253C87"/>
<stop offset="0.300013" stop-color="#253C87"/>
<stop offset="1" stop-color="#EB5C4A"/>
</linearGradient>
<linearGradient id="paint3_linear" x1="0" y1="0" x2="1" y2="0" gradientUnits="userSpaceOnUse" gradientTransform="matrix(127.969 -4.81221e-05 0.000387571 5435.02 -0.000193785 -2709.38)">
<stop offset="0" stop-color="#253C87"/>
<stop offset="0.300013" stop-color="#253C87"/>
<stop offset="1" stop-color="#EB5C4A"/>
</linearGradient>
<linearGradient id="paint4_linear" x1="0" y1="0" x2="1" y2="0" gradientUnits="userSpaceOnUse" gradientTransform="matrix(127.969 -4.81221e-05 0.000387571 5435.02 -0.000193785 -2709.38)">
<stop offset="0" stop-color="#253C87"/>
<stop offset="0.300013" stop-color="#253C87"/>
<stop offset="1" stop-color="#EB5C4A"/>
</linearGradient>
<linearGradient id="paint5_linear" x1="0" y1="0" x2="1" y2="0" gradientUnits="userSpaceOnUse" gradientTransform="matrix(127.969 -4.81221e-05 0.000387571 5435.02 -0.000193785 -2709.38)">
<stop offset="0" stop-color="#253C87"/>
<stop offset="0.300013" stop-color="#253C87"/>
<stop offset="1" stop-color="#EB5C4A"/>
</linearGradient>
<linearGradient id="paint6_linear" x1="0" y1="0" x2="1" y2="0" gradientUnits="userSpaceOnUse" gradientTransform="matrix(127.969 -4.81221e-05 0.000387571 5435.02 -0.000193785 -2709.38)">
<stop offset="0" stop-color="#253C87"/>
<stop offset="0.300013" stop-color="#253C87"/>
<stop offset="1" stop-color="#EB5C4A"/>
</linearGradient>
<linearGradient id="paint7_linear" x1="0" y1="0" x2="1" y2="0" gradientUnits="userSpaceOnUse" gradientTransform="matrix(127.969 -4.81221e-05 0.000387571 5435.02 -0.000193785 -2709.38)">
<stop offset="0" stop-color="#253C87"/>
<stop offset="0.300013" stop-color="#253C87"/>
<stop offset="1" stop-color="#EB5C4A"/>
</linearGradient>
<linearGradient id="paint8_linear" x1="0" y1="0" x2="1" y2="0" gradientUnits="userSpaceOnUse" gradientTransform="matrix(127.926 -3.58118e-05 0.00038744 4044.66 -0.00019372 -2016.28)">
<stop offset="0" stop-color="#253C87"/>
<stop offset="0.300013" stop-color="#253C87"/>
<stop offset="1" stop-color="#EB5C4A"/>
</linearGradient>
<linearGradient id="paint9_linear" x1="0" y1="0" x2="1" y2="0" gradientUnits="userSpaceOnUse" gradientTransform="matrix(127.926 -3.58118e-05 0.00038744 4044.66 -0.00019372 -2016.28)">
<stop offset="0" stop-color="#253C87"/>
<stop offset="0.300013" stop-color="#253C87"/>
<stop offset="1" stop-color="#EB5C4A"/>
</linearGradient>
<linearGradient id="paint10_linear" x1="0" y1="0" x2="1" y2="0" gradientUnits="userSpaceOnUse" gradientTransform="matrix(127.926 -3.58118e-05 0.00038744 4044.66 -0.00019372 -2016.28)">
<stop offset="0" stop-color="#253C87"/>
<stop offset="0.300013" stop-color="#253C87"/>
<stop offset="1" stop-color="#EB5C4A"/>
</linearGradient>
<linearGradient id="paint11_linear" x1="0" y1="0" x2="1" y2="0" gradientUnits="userSpaceOnUse" gradientTransform="matrix(127.926 -3.58118e-05 0.00038744 4044.66 -0.00019372 -2016.28)">
<stop offset="0" stop-color="#253C87"/>
<stop offset="0.300013" stop-color="#253C87"/>
<stop offset="1" stop-color="#EB5C4A"/>
</linearGradient>
<linearGradient id="paint12_linear" x1="0" y1="0" x2="1" y2="0" gradientUnits="userSpaceOnUse" gradientTransform="matrix(127.926 -3.58118e-05 0.00038744 4044.66 -0.00019372 -2016.28)">
<stop offset="0" stop-color="#253C87"/>
<stop offset="0.300013" stop-color="#253C87"/>
<stop offset="1" stop-color="#EB5C4A"/>
</linearGradient>
<linearGradient id="paint13_linear" x1="0" y1="0" x2="1" y2="0" gradientUnits="userSpaceOnUse" gradientTransform="matrix(127.926 -3.58118e-05 0.00038744 4044.66 -0.00019372 -2016.28)">
<stop offset="0" stop-color="#253C87"/>
<stop offset="0.300013" stop-color="#253C87"/>
<stop offset="1" stop-color="#EB5C4A"/>
</linearGradient>
<linearGradient id="paint14_linear" x1="0" y1="0" x2="1" y2="0" gradientUnits="userSpaceOnUse" gradientTransform="matrix(127.926 -3.58118e-05 0.00038744 4044.66 -0.00019372 -2016.28)">
<stop offset="0" stop-color="#253C87"/>
<stop offset="0.300013" stop-color="#253C87"/>
<stop offset="1" stop-color="#EB5C4A"/>
</linearGradient>
<linearGradient id="paint15_linear" x1="0" y1="0" x2="1" y2="0" gradientUnits="userSpaceOnUse" gradientTransform="matrix(127.926 -3.58118e-05 0.00038744 4044.66 -0.00019372 -2016.28)">
<stop offset="0" stop-color="#253C87"/>
<stop offset="0.300013" stop-color="#253C87"/>
<stop offset="1" stop-color="#EB5C4A"/>
</linearGradient>
<linearGradient id="paint16_linear" x1="0" y1="0" x2="1" y2="0" gradientUnits="userSpaceOnUse" gradientTransform="matrix(127.926 -3.58118e-05 0.00038744 4044.66 -0.00019372 -2016.28)">
<stop offset="0" stop-color="#253C87"/>
<stop offset="0.300013" stop-color="#253C87"/>
<stop offset="1" stop-color="#EB5C4A"/>
</linearGradient>
<linearGradient id="paint17_linear" x1="0" y1="0" x2="1" y2="0" gradientUnits="userSpaceOnUse" gradientTransform="matrix(127.926 -3.58118e-05 0.00038744 4044.66 -0.00019372 -2016.28)">
<stop offset="0" stop-color="#253C87"/>
<stop offset="0.300013" stop-color="#253C87"/>
<stop offset="1" stop-color="#EB5C4A"/>
</linearGradient>
<linearGradient id="paint18_linear" x1="0" y1="0" x2="1" y2="0" gradientUnits="userSpaceOnUse" gradientTransform="matrix(127.926 -3.58118e-05 0.00038744 4044.66 -0.00019372 -2016.28)">
<stop offset="0" stop-color="#253C87"/>
<stop offset="0.300013" stop-color="#253C87"/>
<stop offset="1" stop-color="#EB5C4A"/>
</linearGradient>
<linearGradient id="paint19_linear" x1="0" y1="0" x2="1" y2="0" gradientUnits="userSpaceOnUse" gradientTransform="matrix(127.926 -3.58118e-05 0.00038744 4044.66 -0.00019372 -2016.28)">
<stop offset="0" stop-color="#253C87"/>
<stop offset="0.300013" stop-color="#253C87"/>
<stop offset="1" stop-color="#EB5C4A"/>
</linearGradient>
<path id="path0_fill" d="M 0.628026 16.0289C 0.457451 16.0289 0.310136 15.9687 0.186082 15.8483C 0.0620273 15.7279 0 15.5849 0 15.4193L 0 0.835308C 0 0.669751 0.0620273 0.526771 0.186082 0.406366C 0.310136 0.285961 0.457451 0.225759 0.628026 0.225759L 7.48979 0.225759C 8.48223 0.225759 9.31184 0.376265 9.97864 0.677276C 10.6454 0.963238 11.1804 1.33198 11.5836 1.78349C 11.9868 2.21996 12.2736 2.70158 12.4442 3.22835C 12.6303 3.74007 12.7233 4.22169 12.7233 4.67321C 12.7233 5.12473 12.6613 5.53109 12.5373 5.89231C 12.4132 6.23847 12.2581 6.53948 12.0721 6.79534C 11.9015 7.03615 11.7232 7.23933 11.5371 7.40489C 11.3665 7.57045 11.2269 7.68333 11.1184 7.74353C 11.5991 8.05959 12.041 8.51111 12.4442 9.09808C 12.8474 9.67 13.049 10.4 13.049 11.2879C 13.049 11.8599 12.9404 12.4318 12.7233 13.0037C 12.5062 13.5606 12.1884 14.0648 11.7697 14.5163C 11.351 14.9678 10.8238 15.3365 10.188 15.6225C 9.56771 15.8934 8.84664 16.0289 8.02478 16.0289L 0.628026 16.0289ZM 9.58321 4.78609C 9.58321 4.21416 9.39713 3.78522 9.02497 3.49926C 8.6528 3.19825 8.06355 3.04774 7.25719 3.04774L 3.14013 3.04774L 3.14013 6.52443L 7.25719 6.52443C 8.06355 6.52443 8.6528 6.38145 9.02497 6.09549C 9.39713 5.79448 9.58321 5.35801 9.58321 4.78609ZM 3.14013 13.2069L 7.44327 13.2069C 8.29615 13.2069 8.91642 13.0338 9.30409 12.6876C 9.70727 12.3264 9.90886 11.8599 9.90886 11.2879C 9.90886 10.716 9.69952 10.2494 9.28083 9.88824C 8.87765 9.52702 8.26513 9.34642 7.44327 9.34642L 3.14013 9.34642L 3.14013 13.2069Z"/>
<path id="path1_fill" d="M 27.0178 13.2069C 27.1884 13.2069 27.3357 13.2671 27.4598 13.3875C 27.5838 13.5079 27.6459 13.6509 27.6459 13.8164L 27.6459 15.4193C 27.6459 15.5849 27.5838 15.7279 27.4598 15.8483C 27.3357 15.9687 27.1884 16.0289 27.0178 16.0289L 16.8066 16.0289C 16.636 16.0289 16.4887 15.9687 16.3647 15.8483C 16.2406 15.7279 16.1786 15.5849 16.1786 15.4193L 16.1786 0.835308C 16.1786 0.669751 16.2406 0.526771 16.3647 0.406366C 16.4887 0.285961 16.636 0.225759 16.8066 0.225759L 26.8318 0.225759C 27.0023 0.225759 27.1497 0.285961 27.2737 0.406366C 27.3978 0.526771 27.4598 0.669751 27.4598 0.835308L 27.4598 2.4382C 27.4598 2.60375 27.3978 2.74673 27.2737 2.86714C 27.1497 2.98754 27.0023 3.04774 26.8318 3.04774L 19.3187 3.04774L 19.3187 6.63731L 26.32 6.63731C 26.4906 6.63731 26.6379 6.69751 26.762 6.81792C 26.886 6.93832 26.9481 7.0813 26.9481 7.24686L 26.9481 8.84975C 26.9481 9.0153 26.886 9.15828 26.762 9.27869C 26.6379 9.39909 26.4906 9.45929 26.32 9.45929L 19.3187 9.45929L 19.3187 13.2069L 27.0178 13.2069Z"/>
<path id="path2_fill" d="M 38.2802 8.51111L 36.2798 15.2613C 36.2022 15.4871 36.1014 15.6752 35.9774 15.8257C 35.8688 15.9611 35.6983 16.0289 35.4657 16.0289L 33.5816 16.0289C 33.349 16.0289 33.1629 15.9611 33.0233 15.8257C 32.8993 15.6752 32.814 15.4871 32.7675 15.2613L 29.7902 1.01591C 29.7747 0.940662 29.7669 0.880459 29.7669 0.835308C 29.7669 0.669751 29.8289 0.526771 29.953 0.406366C 30.077 0.285961 30.2244 0.225759 30.3949 0.225759L 32.1162 0.225759C 32.2713 0.225759 32.4186 0.270911 32.5581 0.361214C 32.6977 0.451518 32.7907 0.609549 32.8373 0.835308L 34.7911 10.4075L 36.5124 4.37972C 36.5434 4.27437 36.6132 4.13891 36.7217 3.97336C 36.8458 3.8078 37.0474 3.72502 37.3265 3.72502L 39.2338 3.72502C 39.5129 3.72502 39.7068 3.8078 39.8153 3.97336C 39.9394 4.13891 40.0169 4.27437 40.0479 4.37972L 41.7692 10.4075L 43.723 0.835308C 43.7696 0.609549 43.8626 0.451518 44.0022 0.361214C 44.1417 0.270911 44.289 0.225759 44.4441 0.225759L 46.1654 0.225759C 46.3359 0.225759 46.4833 0.285961 46.6073 0.406366C 46.7314 0.526771 46.7934 0.669751 46.7934 0.835308C 46.7934 0.880459 46.7856 0.940662 46.7701 1.01591L 43.7928 15.2613C 43.7463 15.4871 43.6533 15.6752 43.5137 15.8257C 43.3897 15.9611 43.2113 16.0289 42.9787 16.0289L 41.0946 16.0289C 40.862 16.0289 40.6837 15.9611 40.5597 15.8257C 40.4511 15.6752 40.3581 15.4871 40.2805 15.2613L 38.2802 8.51111Z"/>
<path id="path3_fill" d="M 60.488 13.2069C 60.6586 13.2069 60.8059 13.2671 60.93 13.3875C 61.054 13.5079 61.1161 13.6509 61.1161 13.8164L 61.1161 15.4193C 61.1161 15.5849 61.054 15.7279 60.93 15.8483C 60.8059 15.9687 60.6586 16.0289 60.488 16.0289L 50.2768 16.0289C 50.1062 16.0289 49.9589 15.9687 49.8349 15.8483C 49.7108 15.7279 49.6488 15.5849 49.6488 15.4193L 49.6488 0.835308C 49.6488 0.669751 49.7108 0.526771 49.8349 0.406366C 49.9589 0.285961 50.1062 0.225759 50.2768 0.225759L 60.302 0.225759C 60.4725 0.225759 60.6198 0.285961 60.7439 0.406366C 60.868 0.526771 60.93 0.669751 60.93 0.835308L 60.93 2.4382C 60.93 2.60375 60.868 2.74673 60.7439 2.86714C 60.6198 2.98754 60.4725 3.04774 60.302 3.04774L 52.7889 3.04774L 52.7889 6.63731L 59.7902 6.63731C 59.9608 6.63731 60.1081 6.69751 60.2322 6.81792C 60.3562 6.93832 60.4183 7.0813 60.4183 7.24686L 60.4183 8.84975C 60.4183 9.0153 60.3562 9.15828 60.2322 9.27869C 60.1081 9.39909 59.9608 9.45929 59.7902 9.45929L 52.7889 9.45929L 52.7889 13.2069L 60.488 13.2069Z"/>
<path id="path4_fill" d="M 63.5195 6.07291C 63.5505 5.16988 63.7211 4.34962 64.0312 3.61214C 64.3414 2.85961 64.7911 2.21996 65.3803 1.69319C 65.9696 1.15137 66.6906 0.737479 67.5435 0.451518C 68.4119 0.150506 69.4198 0 70.5674 0C 71.9164 0 73.0252 0.173082 73.8936 0.519245C 74.7775 0.850358 75.4752 1.25672 75.987 1.73834C 76.5142 2.20491 76.8786 2.69406 77.0802 3.20578C 77.2973 3.70244 77.4214 4.12386 77.4524 4.47002C 77.4679 4.65063 77.4059 4.80114 77.2663 4.92154C 77.1422 5.0269 76.9949 5.07957 76.8243 5.07957L 74.9403 5.07957C 74.7697 5.07957 74.6301 5.04195 74.5216 4.96669C 74.4285 4.87639 74.3588 4.78609 74.3122 4.69578C 74.2812 4.63558 74.1959 4.50765 74.0564 4.31199C 73.9323 4.10129 73.723 3.89058 73.4284 3.67987C 73.1492 3.45411 72.7771 3.25845 72.3119 3.0929C 71.8467 2.91229 71.2652 2.82199 70.5674 2.82199C 69.4043 2.82199 68.4739 3.13052 67.7761 3.7476C 67.0783 4.34962 66.7061 5.16235 66.6596 6.18579C 66.6286 6.75771 66.6131 7.37479 66.6131 8.03701C 66.6131 8.68419 66.6286 9.29374 66.6596 9.86566C 66.7061 11.1149 67.0783 12.0254 67.7761 12.5973C 68.4739 13.1542 69.4043 13.4326 70.5674 13.4326C 71.1411 13.4326 71.6683 13.3724 72.149 13.252C 72.6298 13.1316 73.0407 12.936 73.3818 12.6651C 73.7385 12.3942 74.0099 12.0405 74.1959 11.604C 74.3975 11.1525 74.4983 10.6031 74.4983 9.95596L 74.4983 9.77536L 71.6606 9.77536C 71.49 9.77536 71.3427 9.71515 71.2186 9.59475C 71.0946 9.47435 71.0326 9.33136 71.0326 9.16581L 71.0326 7.56292C 71.0326 7.39736 71.0946 7.25438 71.2186 7.13398C 71.3427 7.01357 71.49 6.95337 71.6606 6.95337L 77.0104 6.95337C 77.181 6.95337 77.3283 7.01357 77.4524 7.13398C 77.5764 7.25438 77.6385 7.39736 77.6385 7.56292L 77.6385 10.0463C 77.6385 10.9493 77.4911 11.7846 77.1965 12.5522C 76.9019 13.3047 76.4599 13.9594 75.8707 14.5163C 75.2814 15.0581 74.5448 15.4871 73.661 15.8031C 72.7771 16.1041 71.7459 16.2546 70.5674 16.2546C 69.3888 16.2546 68.3654 16.1041 67.497 15.8031C 66.6286 15.5021 65.9076 15.0807 65.3338 14.5389C 64.76 13.997 64.3181 13.3499 64.008 12.5973C 63.7133 11.8298 63.5505 10.9945 63.5195 10.0914C 63.504 9.80546 63.4885 9.4894 63.473 9.14323C 63.473 8.79707 63.473 8.44338 63.473 8.08217C 63.473 7.72095 63.473 7.36726 63.473 7.0211C 63.4885 6.67494 63.504 6.35887 63.5195 6.07291Z"/>
<path id="path5_fill" d="M 93.3858 0.225759C 93.5564 0.225759 93.7037 0.285961 93.8278 0.406366C 93.9518 0.526771 94.0138 0.669751 94.0138 0.835308L 94.0138 10.0914C 94.0138 11.0246 93.8743 11.8674 93.5952 12.6199C 93.316 13.3724 92.8973 14.0196 92.3391 14.5614C 91.7809 15.1033 91.083 15.5247 90.2457 15.8257C 89.4083 16.1117 88.4391 16.2546 87.3382 16.2546C 86.2217 16.2546 85.2447 16.1117 84.4074 15.8257C 83.5855 15.5247 82.8955 15.1033 82.3372 14.5614C 81.779 14.0196 81.3603 13.3724 81.0812 12.6199C 80.8175 11.8674 80.6857 11.0246 80.6857 10.0914L 80.6857 0.835308C 80.6857 0.669751 80.7478 0.526771 80.8718 0.406366C 80.9959 0.285961 81.1432 0.225759 81.3138 0.225759L 83.1978 0.225759C 83.3684 0.225759 83.5157 0.285961 83.6398 0.406366C 83.7638 0.526771 83.8259 0.669751 83.8259 0.835308L 83.8259 9.97854C 83.8259 10.5956 83.9111 11.1224 84.0817 11.5589C 84.2523 11.9953 84.4926 12.3565 84.8028 12.6425C 85.1129 12.9134 85.4851 13.1166 85.9193 13.252C 86.3535 13.3724 86.8264 13.4326 87.3382 13.4326C 87.8499 13.4326 88.3228 13.3724 88.757 13.252C 89.2067 13.1166 89.5866 12.9134 89.8968 12.6425C 90.2069 12.3565 90.4473 11.9953 90.6178 11.5589C 90.8039 11.1224 90.897 10.5956 90.897 9.97854L 90.897 0.835308C 90.897 0.669751 90.959 0.526771 91.083 0.406366C 91.2071 0.285961 91.3544 0.225759 91.525 0.225759L 93.3858 0.225759Z"/>
<path id="path6_fill" d="M 108.313 16.0289C 108.049 16.0289 107.848 15.9611 107.708 15.8257C 107.569 15.6902 107.468 15.5849 107.406 15.5096L 100.893 6.11806L 100.893 15.4193C 100.893 15.5849 100.831 15.7279 100.707 15.8483C 100.583 15.9687 100.436 16.0289 100.265 16.0289L 98.3809 16.0289C 98.2104 16.0289 98.063 15.9687 97.939 15.8483C 97.8149 15.7279 97.7529 15.5849 97.7529 15.4193L 97.7529 0.835308C 97.7529 0.669751 97.8149 0.526771 97.939 0.406366C 98.063 0.285961 98.2104 0.225759 98.3809 0.225759L 100.009 0.225759C 100.273 0.225759 100.474 0.293486 100.614 0.428942C 100.753 0.564397 100.854 0.669751 100.916 0.745004L 107.429 10.1366L 107.429 0.835308C 107.429 0.669751 107.491 0.526771 107.615 0.406366C 107.739 0.285961 107.887 0.225759 108.057 0.225759L 109.941 0.225759C 110.112 0.225759 110.259 0.285961 110.383 0.406366C 110.507 0.526771 110.569 0.669751 110.569 0.835308L 110.569 15.4193C 110.569 15.5849 110.507 15.7279 110.383 15.8483C 110.259 15.9687 110.112 16.0289 109.941 16.0289L 108.313 16.0289Z"/>
<path id="path7_fill" d="M 113.85 6.07291C 113.881 5.16988 114.051 4.34962 114.361 3.61214C 114.672 2.85961 115.121 2.21996 115.711 1.69319C 116.3 1.15137 117.021 0.737479 117.874 0.451518C 118.742 0.150506 119.75 0 120.898 0C 122.247 0 123.355 0.173082 124.224 0.519245C 125.108 0.850358 125.805 1.25672 126.317 1.73834C 126.844 2.20491 127.209 2.69406 127.41 3.20578C 127.628 3.70244 127.752 4.12386 127.783 4.47002C 127.798 4.65063 127.736 4.80114 127.596 4.92154C 127.472 5.0269 127.325 5.07957 127.155 5.07957L 125.27 5.07957C 125.1 5.07957 124.96 5.04195 124.852 4.96669C 124.759 4.87639 124.689 4.78609 124.642 4.69578C 124.611 4.63558 124.526 4.50765 124.387 4.31199C 124.263 4.10129 124.053 3.89058 123.759 3.67987C 123.479 3.45411 123.107 3.25845 122.642 3.0929C 122.177 2.91229 121.595 2.82199 120.898 2.82199C 119.735 2.82199 118.804 3.13052 118.106 3.7476C 117.409 4.34962 117.036 5.16235 116.99 6.18579C 116.959 6.75771 116.943 7.37479 116.943 8.03701C 116.943 8.68419 116.959 9.29374 116.99 9.86566C 117.036 11.1149 117.409 12.0254 118.106 12.5973C 118.804 13.1542 119.735 13.4326 120.898 13.4326C 121.471 13.4326 121.999 13.3724 122.479 13.252C 122.96 13.1316 123.371 12.936 123.712 12.6651C 124.069 12.3942 124.34 12.0405 124.526 11.604C 124.728 11.1525 124.829 10.6031 124.829 9.95596L 124.829 9.77536L 121.991 9.77536C 121.82 9.77536 121.673 9.71515 121.549 9.59475C 121.425 9.47435 121.363 9.33136 121.363 9.16581L 121.363 7.56292C 121.363 7.39736 121.425 7.25438 121.549 7.13398C 121.673 7.01357 121.82 6.95337 121.991 6.95337L 127.341 6.95337C 127.511 6.95337 127.659 7.01357 127.783 7.13398C 127.907 7.25438 127.969 7.39736 127.969 7.56292L 127.969 10.0463C 127.969 10.9493 127.821 11.7846 127.527 12.5522C 127.232 13.3047 126.79 13.9594 126.201 14.5163C 125.612 15.0581 124.875 15.4871 123.991 15.8031C 123.107 16.1041 122.076 16.2546 120.898 16.2546C 119.719 16.2546 118.696 16.1041 117.827 15.8031C 116.959 15.5021 116.238 15.0807 115.664 14.5389C 115.09 13.997 114.648 13.3499 114.338 12.5973C 114.044 11.8298 113.881 10.9945 113.85 10.0914C 113.834 9.80546 113.819 9.4894 113.803 9.14323C 113.803 8.79707 113.803 8.44338 113.803 8.08217C 113.803 7.72095 113.803 7.36726 113.803 7.0211C 113.819 6.67494 113.834 6.35887 113.85 6.07291Z"/>
<path id="path8_fill" d="M 4.74292 0.168006C 5.59688 0.168006 6.33543 0.280011 6.95859 0.504019C 7.59329 0.716827 8.11836 1.02484 8.5338 1.42805C 8.96077 1.83127 9.28389 2.31849 9.50315 2.88971C 9.73395 3.46093 9.87243 4.09935 9.91859 4.80498C 9.96475 5.63381 9.96475 6.46264 9.91859 7.29148C 9.87243 7.9971 9.73395 8.63553 9.50315 9.20675C 9.28389 9.77797 8.96654 10.2652 8.55111 10.6684C 8.13567 11.0716 7.61637 11.3852 6.99321 11.6092C 6.38159 11.822 5.66035 11.9285 4.82947 11.9285L 0.467368 11.9285C 0.340429 11.9285 0.230799 11.8836 0.138479 11.794C 0.0461598 11.7044 0 11.598 0 11.4748L 0 0.621623C 0 0.498419 0.0461598 0.392015 0.138479 0.302411C 0.230799 0.212808 0.340429 0.168006 0.467368 0.168006L 4.74292 0.168006ZM 7.58175 4.80498C 7.55867 4.44657 7.48366 4.11616 7.35672 3.81374C 7.24132 3.50013 7.06245 3.23132 6.82011 3.00731C 6.58931 2.7721 6.29504 2.5929 5.93731 2.46969C 5.57957 2.33529 5.15259 2.26809 4.65637 2.26809L 2.33684 2.26809L 2.33684 9.82837L 4.74292 9.82837C 5.21606 9.82837 5.62573 9.76677 5.97193 9.64356C 6.31812 9.50916 6.60662 9.32995 6.83742 9.10594C 7.06822 8.88194 7.24132 8.61313 7.35672 8.29951C 7.48366 7.9859 7.55867 7.64989 7.58175 7.29148C 7.62791 6.46264 7.62791 5.63381 7.58175 4.80498Z"/>
<path id="path9_fill" d="M 20.3409 9.82837C 20.4679 9.82837 20.5775 9.87317 20.6698 9.96278C 20.7621 10.0524 20.8083 10.1588 20.8083 10.282L 20.8083 11.4748C 20.8083 11.598 20.7621 11.7044 20.6698 11.794C 20.5775 11.8836 20.4679 11.9285 20.3409 11.9285L 12.7419 11.9285C 12.6149 11.9285 12.5053 11.8836 12.413 11.794C 12.3207 11.7044 12.2745 11.598 12.2745 11.4748L 12.2745 0.621623C 12.2745 0.498419 12.3207 0.392015 12.413 0.302411C 12.5053 0.212808 12.6149 0.168006 12.7419 0.168006L 20.2024 0.168006C 20.3294 0.168006 20.439 0.212808 20.5313 0.302411C 20.6237 0.392015 20.6698 0.498419 20.6698 0.621623L 20.6698 1.81447C 20.6698 1.93767 20.6237 2.04408 20.5313 2.13368C 20.439 2.22328 20.3294 2.26809 20.2024 2.26809L 14.6113 2.26809L 14.6113 4.93939L 19.8216 4.93939C 19.9486 4.93939 20.0582 4.98419 20.1505 5.07379C 20.2428 5.16339 20.289 5.2698 20.289 5.393L 20.289 6.58585C 20.289 6.70905 20.2428 6.81546 20.1505 6.90506C 20.0582 6.99466 19.9486 7.03947 19.8216 7.03947L 14.6113 7.03947L 14.6113 9.82837L 20.3409 9.82837Z"/>
<path id="path10_fill" d="M 28.7222 6.16583L 32.0111 0.621623C 32.0572 0.565621 32.1322 0.476018 32.2361 0.352813C 32.3515 0.229609 32.5246 0.168006 32.7554 0.168006L 33.9325 0.168006C 34.0594 0.168006 34.169 0.212808 34.2614 0.302411C 34.3537 0.392015 34.3998 0.498419 34.3998 0.621623L 34.3998 11.4748C 34.3998 11.598 34.3537 11.7044 34.2614 11.794C 34.169 11.8836 34.0594 11.9285 33.9325 11.9285L 32.5304 11.9285C 32.4034 11.9285 32.2938 11.8836 32.2015 11.794C 32.1092 11.7044 32.063 11.598 32.063 11.4748L 32.063 4.90579L 29.8127 8.68593C 29.755 8.77553 29.6742 8.87074 29.5704 8.97154C 29.4665 9.06114 29.3338 9.10594 29.1722 9.10594L 28.2721 9.10594C 28.1106 9.10594 27.9779 9.06114 27.874 8.97154C 27.7701 8.87074 27.6894 8.77553 27.6317 8.68593L 25.3814 4.90579L 25.3814 11.4748C 25.3814 11.598 25.3352 11.7044 25.2429 11.794C 25.1506 11.8836 25.0409 11.9285 24.914 11.9285L 23.5119 11.9285C 23.385 11.9285 23.2753 11.8836 23.183 11.794C 23.0907 11.7044 23.0445 11.598 23.0445 11.4748L 23.0445 0.621623C 23.0445 0.498419 23.0907 0.392015 23.183 0.302411C 23.2753 0.212808 23.385 0.168006 23.5119 0.168006L 24.689 0.168006C 24.9198 0.168006 25.0871 0.229609 25.191 0.352813C 25.3064 0.476018 25.3871 0.565621 25.4333 0.621623L 28.7222 6.16583Z"/>
<path id="path11_fill" d="M 36.7631 4.55297C 36.7977 3.92575 36.9188 3.33773 37.1266 2.78891C 37.3458 2.22888 37.6632 1.74727 38.0786 1.34405C 38.494 0.929635 39.0133 0.604823 39.6365 0.369614C 40.2597 0.123205 40.9982 0 41.8522 0C 42.6946 0 43.4274 0.117604 44.0505 0.352813C 44.6737 0.588022 45.193 0.912835 45.6084 1.32725C 46.0239 1.74167 46.3412 2.22328 46.5605 2.7721C 46.7797 3.32093 46.9067 3.91455 46.9413 4.55297C 46.9528 4.76578 46.9586 5.00099 46.9586 5.2586C 46.9701 5.51621 46.9759 5.78502 46.9759 6.06503C 46.9759 6.33384 46.9701 6.59705 46.9586 6.85466C 46.9586 7.11227 46.9528 7.34748 46.9413 7.56029C 46.9067 8.18751 46.7797 8.78113 46.5605 9.34115C 46.3528 9.88997 46.0412 10.3716 45.6257 10.786C 45.2103 11.1892 44.6852 11.5084 44.0505 11.7436C 43.4274 11.9789 42.6946 12.0965 41.8522 12.0965C 40.9982 12.0965 40.2597 11.9789 39.6365 11.7436C 39.0133 11.5084 38.494 11.1892 38.0786 10.786C 37.6632 10.3716 37.3458 9.88997 37.1266 9.34115C 36.9188 8.78113 36.7977 8.18751 36.7631 7.56029C 36.7515 7.34748 36.74 7.11227 36.7284 6.85466C 36.7284 6.59705 36.7284 6.33384 36.7284 6.06503C 36.7284 5.78502 36.7284 5.51621 36.7284 5.2586C 36.74 5.00099 36.7515 4.76578 36.7631 4.55297ZM 44.6045 4.63698C 44.5583 3.83054 44.2871 3.20892 43.7909 2.7721C 43.3062 2.32409 42.66 2.10008 41.8522 2.10008C 41.0444 2.10008 40.3924 2.32409 39.8961 2.7721C 39.4115 3.20892 39.1461 3.83054 39.0999 4.63698C 39.0768 5.06259 39.0653 5.53861 39.0653 6.06503C 39.0653 6.58025 39.0768 7.05067 39.0999 7.47628C 39.1461 8.28271 39.4115 8.90434 39.8961 9.34115C 40.3924 9.77797 41.0444 9.99638 41.8522 9.99638C 42.66 9.99638 43.3062 9.77797 43.7909 9.34115C 44.2871 8.90434 44.5583 8.28271 44.6045 7.47628C 44.6275 7.05067 44.6391 6.58025 44.6391 6.06503C 44.6391 5.53861 44.6275 5.06259 44.6045 4.63698Z"/>
<path id="path12_fill" d="M 58.5093 11.2228C 58.567 11.2788 58.6016 11.3292 58.6132 11.374C 58.6247 11.4188 58.6305 11.4524 58.6305 11.4748C 58.6305 11.598 58.5843 11.7044 58.492 11.794C 58.3997 11.8836 58.2901 11.9285 58.1631 11.9285L 56.5187 11.9285C 56.2879 11.9285 56.1032 11.8724 55.9648 11.7604C 55.8263 11.6372 55.7455 11.5644 55.7224 11.542L 51.6546 7.08987L 51.6546 11.4748C 51.6546 11.598 51.6084 11.7044 51.5161 11.794C 51.4238 11.8836 51.3142 11.9285 51.1872 11.9285L 49.7851 11.9285C 49.6582 11.9285 49.5486 11.8836 49.4562 11.794C 49.3639 11.7044 49.3178 11.598 49.3178 11.4748L 49.3178 0.621623C 49.3178 0.498419 49.3639 0.392015 49.4562 0.302411C 49.5486 0.212808 49.6582 0.168006 49.7851 0.168006L 51.1872 0.168006C 51.3142 0.168006 51.4238 0.212808 51.5161 0.302411C 51.6084 0.392015 51.6546 0.498419 51.6546 0.621623L 51.6546 4.56977L 55.4282 0.53762C 55.532 0.425616 55.6416 0.336013 55.757 0.26881C 55.8724 0.201608 56.0225 0.168006 56.2071 0.168006L 57.7996 0.168006C 57.9266 0.168006 58.0362 0.212808 58.1285 0.302411C 58.2208 0.392015 58.267 0.498419 58.267 0.621623C 58.267 0.711227 58.2324 0.79523 58.1631 0.873633L 53.5068 5.79622L 58.5093 11.2228Z"/>
<path id="path13_fill" d="M 65.207 0.168006C 66.6495 0.168006 67.7458 0.492819 68.4959 1.14244C 69.246 1.79207 69.6211 2.6937 69.6211 3.84735C 69.6211 4.66498 69.4249 5.365 69.0325 5.94742C 68.6517 6.51865 68.0863 6.94426 67.3362 7.22427L 69.7249 11.374C 69.7596 11.4412 69.7769 11.5028 69.7769 11.5588C 69.7769 11.6596 69.7365 11.7492 69.6557 11.8276C 69.5865 11.8948 69.4999 11.9285 69.3961 11.9285L 67.9247 11.9285C 67.6939 11.9285 67.5208 11.878 67.4054 11.7772C 67.3016 11.6652 67.2265 11.5644 67.1804 11.4748L 64.9128 7.56029L 62.6106 7.56029L 62.6106 11.4748C 62.6106 11.598 62.5644 11.7044 62.4721 11.794C 62.3798 11.8836 62.2701 11.9285 62.1432 11.9285L 60.7411 11.9285C 60.6141 11.9285 60.5045 11.8836 60.4122 11.794C 60.3199 11.7044 60.2737 11.598 60.2737 11.4748L 60.2737 0.621623C 60.2737 0.498419 60.3199 0.392015 60.4122 0.302411C 60.5045 0.212808 60.6141 0.168006 60.7411 0.168006L 65.207 0.168006ZM 62.6106 5.46021L 65.1205 5.46021C 65.7783 5.46021 66.3033 5.3482 66.6957 5.12419C 67.0881 4.90018 67.2842 4.47457 67.2842 3.84735C 67.2842 3.22012 67.0881 2.80011 66.6957 2.5873C 66.3033 2.37449 65.7783 2.26809 65.1205 2.26809L 62.6106 2.26809L 62.6106 5.46021Z"/>
<path id="path14_fill" d="M 77.6515 0.168006C 77.8362 0.168006 77.9747 0.218408 78.067 0.319212C 78.1593 0.408815 78.2401 0.548821 78.3093 0.739228L 82.5503 11.3572C 82.5618 11.3908 82.5676 11.43 82.5676 11.4748C 82.5676 11.598 82.5214 11.7044 82.4291 11.794C 82.3368 11.8836 82.2271 11.9285 82.1002 11.9285L 80.8539 11.9285C 80.6231 11.9285 80.4615 11.8836 80.3692 11.794C 80.2769 11.6932 80.2134 11.598 80.1788 11.5084L 79.4345 9.64356L 73.9645 9.64356L 73.2202 11.5084C 73.1856 11.598 73.1221 11.6932 73.0298 11.794C 72.9375 11.8836 72.7759 11.9285 72.5451 11.9285L 71.2988 11.9285C 71.1719 11.9285 71.0622 11.8836 70.9699 11.794C 70.8776 11.7044 70.8314 11.598 70.8314 11.4748C 70.8314 11.43 70.8372 11.3908 70.8487 11.3572L 75.0897 0.739228C 75.1589 0.548821 75.2397 0.408815 75.332 0.319212C 75.4243 0.218408 75.5628 0.168006 75.7474 0.168006L 77.6515 0.168006ZM 78.6036 7.54348L 76.6995 2.7553L 74.7954 7.54348L 78.6036 7.54348Z"/>
<path id="path15_fill" d="M 91.0635 0.168006C 91.1904 0.168006 91.3001 0.212808 91.3924 0.302411C 91.4847 0.392015 91.5309 0.498419 91.5309 0.621623L 91.5309 1.81447C 91.5309 1.93767 91.4847 2.04408 91.3924 2.13368C 91.3001 2.22328 91.1904 2.26809 91.0635 2.26809L 87.9477 2.26809L 87.9477 11.4748C 87.9477 11.598 87.9015 11.7044 87.8092 11.794C 87.7169 11.8836 87.6073 11.9285 87.4803 11.9285L 86.0782 11.9285C 85.9513 11.9285 85.8417 11.8836 85.7493 11.794C 85.657 11.7044 85.6109 11.598 85.6109 11.4748L 85.6109 2.26809L 82.4951 2.26809C 82.3681 2.26809 82.2585 2.22328 82.1662 2.13368C 82.0739 2.04408 82.0277 1.93767 82.0277 1.81447L 82.0277 0.621623C 82.0277 0.498419 82.0739 0.392015 82.1662 0.302411C 82.2585 0.212808 82.3681 0.168006 82.4951 0.168006L 91.0635 0.168006Z"/>
<path id="path16_fill" d="M 93.8119 11.9285C 93.6849 11.9285 93.5753 11.8836 93.483 11.794C 93.3906 11.7044 93.3445 11.598 93.3445 11.4748L 93.3445 0.621623C 93.3445 0.498419 93.3906 0.392015 93.483 0.302411C 93.5753 0.212808 93.6849 0.168006 93.8119 0.168006L 95.214 0.168006C 95.3409 0.168006 95.4505 0.212808 95.5428 0.302411C 95.6352 0.392015 95.6813 0.498419 95.6813 0.621623L 95.6813 11.4748C 95.6813 11.598 95.6352 11.7044 95.5428 11.794C 95.4505 11.8836 95.3409 11.9285 95.214 11.9285L 93.8119 11.9285Z"/>
<path id="path17_fill" d="M 106.535 9.82837C 106.662 9.82837 106.771 9.87317 106.864 9.96278C 106.956 10.0524 107.002 10.1588 107.002 10.282L 107.002 11.4748C 107.002 11.598 106.956 11.7044 106.864 11.794C 106.771 11.8836 106.662 11.9285 106.535 11.9285L 98.9359 11.9285C 98.8089 11.9285 98.6993 11.8836 98.607 11.794C 98.5147 11.7044 98.4685 11.598 98.4685 11.4748L 98.4685 0.621623C 98.4685 0.498419 98.5147 0.392015 98.607 0.302411C 98.6993 0.212808 98.8089 0.168006 98.9359 0.168006L 106.396 0.168006C 106.523 0.168006 106.633 0.212808 106.725 0.302411C 106.818 0.392015 106.864 0.498419 106.864 0.621623L 106.864 1.81447C 106.864 1.93767 106.818 2.04408 106.725 2.13368C 106.633 2.22328 106.523 2.26809 106.396 2.26809L 100.805 2.26809L 100.805 4.93939L 106.016 4.93939C 106.143 4.93939 106.252 4.98419 106.345 5.07379C 106.437 5.16339 106.483 5.2698 106.483 5.393L 106.483 6.58585C 106.483 6.70905 106.437 6.81546 106.345 6.90506C 106.252 6.99466 106.143 7.03947 106.016 7.03947L 100.805 7.03947L 100.805 9.82837L 106.535 9.82837Z"/>
<path id="path18_fill" d="M 113.731 11.9285C 113.604 11.9285 113.495 11.8836 113.402 11.794C 113.31 11.7044 113.264 11.598 113.264 11.4748L 113.264 0.621623C 113.264 0.498419 113.31 0.392015 113.402 0.302411C 113.495 0.212808 113.604 0.168006 113.731 0.168006L 115.133 0.168006C 115.26 0.168006 115.37 0.212808 115.462 0.302411C 115.554 0.392015 115.601 0.498419 115.601 0.621623L 115.601 11.4748C 115.601 11.598 115.554 11.7044 115.462 11.794C 115.37 11.8836 115.26 11.9285 115.133 11.9285L 113.731 11.9285Z"/>
<path id="path19_fill" d="M 126.246 11.9285C 126.05 11.9285 125.9 11.878 125.796 11.7772C 125.693 11.6764 125.618 11.598 125.571 11.542L 120.725 4.55297L 120.725 11.4748C 120.725 11.598 120.678 11.7044 120.586 11.794C 120.494 11.8836 120.384 11.9285 120.257 11.9285L 118.855 11.9285C 118.728 11.9285 118.619 11.8836 118.526 11.794C 118.434 11.7044 118.388 11.598 118.388 11.4748L 118.388 0.621623C 118.388 0.498419 118.434 0.392015 118.526 0.302411C 118.619 0.212808 118.728 0.168006 118.855 0.168006L 120.067 0.168006C 120.263 0.168006 120.413 0.218408 120.517 0.319212C 120.621 0.420016 120.696 0.498419 120.742 0.554421L 125.589 7.54348L 125.589 0.621623C 125.589 0.498419 125.635 0.392015 125.727 0.302411C 125.819 0.212808 125.929 0.168006 126.056 0.168006L 127.458 0.168006C 127.585 0.168006 127.695 0.212808 127.787 0.302411C 127.879 0.392015 127.926 0.498419 127.926 0.621623L 127.926 11.4748C 127.926 11.598 127.879 11.7044 127.787 11.794C 127.695 11.8836 127.585 11.9285 127.458 11.9285L 126.246 11.9285Z"/>
</defs>
</svg>
